<svg width="207" height="64" viewBox="0 0 207 64" fill="none" xmlns="http://www.w3.org/2000/svg">
<path d="M0.0556641 8.89113C0.0556641 3.98069 4.03636 0 8.94679 0H197.387C202.297 0 206.278 3.98069 206.278 8.89113V55.1089C206.278 60.0193 202.297 64 197.387 64H8.94679C4.03636 64 0.0556641 60.0193 0.0556641 55.1089V8.89113Z" fill="white"/>
<path d="M94.1316 19.8751V20.7571H93.0362C92.8465 21.9995 92.3534 22.9811 91.5567 23.7019C90.7601 24.4132 89.7026 24.7688 88.3844 24.7688C86.8195 24.7688 85.5771 24.2804 84.6572 23.3036C83.7467 22.3172 83.2915 21.0843 83.2915 19.6049C83.301 18.1159 83.7562 16.8735 84.6572 15.8777C85.5676 14.8819 86.81 14.384 88.3844 14.384C89.494 14.384 90.4376 14.659 91.2153 15.2091C91.993 15.7497 92.4672 16.4515 92.6379 17.3145H91.5994C91.4097 16.6886 91.0304 16.1907 90.4613 15.8208C89.8923 15.4414 89.2 15.2518 88.3844 15.2518C87.0946 15.2518 86.0893 15.6643 85.3685 16.4894C84.6477 17.305 84.2921 18.3435 84.3016 19.6049C84.2921 20.8378 84.6525 21.862 85.3827 22.6776C86.1225 23.4838 87.123 23.8868 88.3844 23.8868C89.4276 23.8868 90.2527 23.6165 90.8596 23.076C91.4666 22.5259 91.8555 21.753 92.0262 20.7571H89.1241V19.8751H94.1316Z" fill="black"/>
<path d="M101.205 20.9136C101.205 21.1602 101.195 21.3641 101.176 21.5253H95.9414C95.9414 22.2461 96.1453 22.8246 96.5531 23.2609C96.9704 23.6877 97.5252 23.901 98.2175 23.901C98.7012 23.901 99.1137 23.7967 99.4551 23.5881C99.8061 23.3794 100.053 23.0902 100.195 22.7203H101.12C100.996 23.3178 100.664 23.8015 100.124 24.1713C99.5927 24.5412 98.962 24.7261 98.2317 24.7261C97.2549 24.7261 96.4725 24.4179 95.8845 23.8015C95.306 23.1755 95.0167 22.341 95.0167 21.2977C95.0167 20.2735 95.306 19.4531 95.8845 18.8367C96.463 18.2107 97.2264 17.8978 98.1748 17.8978C99.0758 17.8978 99.8061 18.1823 100.366 18.7513C100.925 19.3109 101.205 20.0316 101.205 20.9136ZM95.9414 20.7998H100.309C100.299 20.1549 100.105 19.638 99.7254 19.2492C99.3461 18.8509 98.8245 18.6517 98.1606 18.6517C97.5252 18.6517 97.0083 18.8509 96.61 19.2492C96.2117 19.638 95.9888 20.1549 95.9414 20.7998Z" fill="black"/>
<path d="M105.355 23.8015C105.687 23.8015 105.976 23.7683 106.223 23.7019V24.527C105.976 24.6029 105.625 24.6408 105.17 24.6408C104.923 24.6408 104.71 24.6171 104.53 24.5697C104.35 24.5317 104.155 24.4464 103.947 24.3136C103.747 24.1713 103.591 23.9437 103.477 23.6308C103.363 23.3083 103.306 22.91 103.306 22.4358V18.8651H102.054V18.0685H103.306V15.9204H104.217V18.0685H106.009V18.8651H104.217V22.2651C104.217 22.8815 104.312 23.2941 104.501 23.5027C104.7 23.7019 104.985 23.8015 105.355 23.8015Z" fill="black"/>
<path d="M112.49 16.5321C112.329 16.6933 112.125 16.7739 111.879 16.7739C111.632 16.7739 111.428 16.6933 111.267 16.5321C111.106 16.3709 111.025 16.167 111.025 15.9204C111.025 15.6833 111.106 15.4841 111.267 15.3229C111.428 15.1522 111.632 15.0668 111.879 15.0668C112.125 15.0668 112.329 15.1522 112.49 15.3229C112.652 15.4841 112.732 15.6833 112.732 15.9204C112.732 16.167 112.652 16.3709 112.49 16.5321ZM111.409 24.5554V18.0685H112.334V24.5554H111.409Z" fill="black"/>
<path d="M117.094 23.8015C117.426 23.8015 117.715 23.7683 117.962 23.7019V24.527C117.715 24.6029 117.364 24.6408 116.909 24.6408C116.662 24.6408 116.449 24.6171 116.269 24.5697C116.089 24.5317 115.894 24.4464 115.686 24.3136C115.486 24.1713 115.33 23.9437 115.216 23.6308C115.102 23.3083 115.045 22.91 115.045 22.4358V18.8651H113.794V18.0685H115.045V15.9204H115.956V18.0685H117.748V18.8651H115.956V22.2651C115.956 22.8815 116.051 23.2941 116.24 23.5027C116.44 23.7019 116.724 23.8015 117.094 23.8015Z" fill="black"/>
<path d="M128.341 23.7446C127.734 24.399 126.928 24.7261 125.922 24.7261C124.917 24.7261 124.106 24.399 123.49 23.7446C122.883 23.0902 122.579 22.2793 122.579 21.312C122.579 20.3446 122.883 19.5337 123.49 18.8793C124.106 18.225 124.917 17.8978 125.922 17.8978C126.928 17.8978 127.734 18.225 128.341 18.8793C128.948 19.5242 129.251 20.3351 129.251 21.312C129.251 22.2793 128.948 23.0902 128.341 23.7446ZM124.158 23.1471C124.604 23.6402 125.192 23.8868 125.922 23.8868C126.653 23.8868 127.236 23.6402 127.672 23.1471C128.118 22.6539 128.341 22.0422 128.341 21.312C128.341 20.5722 128.123 19.9605 127.686 19.4768C127.25 18.9837 126.662 18.7371 125.922 18.7371C125.183 18.7371 124.595 18.9837 124.158 19.4768C123.722 19.9605 123.504 20.5722 123.504 21.312C123.504 22.0422 123.722 22.6539 124.158 23.1471Z" fill="black"/>
<path d="M130.956 24.5554V18.0685H131.88V19.5622C132.032 19.0595 132.317 18.6565 132.734 18.353C133.151 18.0495 133.673 17.8978 134.299 17.8978C135.114 17.8978 135.726 18.1349 136.134 18.609C136.551 19.0738 136.76 19.7519 136.76 20.6433V24.5554H135.849V21.0132C135.849 19.4768 135.233 18.7086 134 18.7086C133.308 18.7086 132.781 18.941 132.421 19.4057C132.061 19.8609 131.88 20.4774 131.88 21.255V24.5554H130.956Z" fill="black"/>
<path d="M92.6025 46.8387L92.0263 44.9396H86.2862L85.7101 46.8387H83.0427L88.0787 31.9016H90.2339L95.2698 46.8387H92.6025ZM86.9264 42.7417H91.3648L89.1456 35.3371L86.9264 42.7417Z" fill="black"/>
<path d="M102.729 36.6388C104.151 36.6388 105.296 37.1225 106.164 38.0898C107.032 39.043 107.466 40.3019 107.466 41.8668C107.466 43.4032 107.01 44.6622 106.1 45.6437C105.19 46.6111 104.016 47.0948 102.579 47.0948C101.925 47.0948 101.306 46.9525 100.723 46.668C100.139 46.3693 99.6984 45.978 99.3997 45.4944V51.3198H97.0738V36.8949H99.3997V38.2392C99.6984 37.7555 100.154 37.3714 100.765 37.0869C101.377 36.7882 102.031 36.6388 102.729 36.6388ZM102.238 45.0249C103.091 45.0249 103.788 44.7333 104.329 44.15C104.87 43.5525 105.14 42.7915 105.14 41.8668C105.14 40.9421 104.87 40.1881 104.329 39.6049C103.788 39.0074 103.091 38.7087 102.238 38.7087C101.356 38.7087 100.644 39.0003 100.104 39.5835C99.5633 40.1668 99.293 40.9279 99.293 41.8668C99.293 42.8057 99.5633 43.5668 100.104 44.15C100.644 44.7333 101.356 45.0249 102.238 45.0249Z" fill="black"/>
<path d="M115.357 36.6388C116.779 36.6388 117.924 37.1225 118.792 38.0898C119.66 39.043 120.094 40.3019 120.094 41.8668C120.094 43.4032 119.639 44.6622 118.728 45.6437C117.818 46.6111 116.644 47.0948 115.207 47.0948C114.553 47.0948 113.934 46.9525 113.351 46.668C112.768 46.3693 112.327 45.978 112.028 45.4944V51.3198H109.702V36.8949H112.028V38.2392C112.327 37.7555 112.782 37.3714 113.394 37.0869C114.005 36.7882 114.66 36.6388 115.357 36.6388ZM114.866 45.0249C115.719 45.0249 116.417 44.7333 116.957 44.15C117.498 43.5525 117.768 42.7915 117.768 41.8668C117.768 40.9421 117.498 40.1881 116.957 39.6049C116.417 39.0074 115.719 38.7087 114.866 38.7087C113.984 38.7087 113.273 39.0003 112.732 39.5835C112.191 40.1668 111.921 40.9279 111.921 41.8668C111.921 42.8057 112.191 43.5668 112.732 44.15C113.273 44.7333 113.984 45.0249 114.866 45.0249Z" fill="black"/>
<path d="M132.253 47.2015C130.517 47.2015 129.173 46.7462 128.22 45.8358C127.281 44.9253 126.811 43.6308 126.811 41.9521H129.265C129.265 42.9195 129.528 43.6806 130.055 44.2354C130.581 44.7902 131.307 45.0676 132.231 45.0676C133.042 45.0676 133.661 44.8898 134.088 44.5341C134.529 44.1643 134.749 43.645 134.749 42.9764C134.749 42.4074 134.586 41.9521 134.258 41.6107C133.945 41.2693 133.369 40.9279 132.53 40.5865L130.097 39.6049C128.191 38.8651 127.238 37.5421 127.238 35.6359C127.238 34.4267 127.679 33.4451 128.561 32.6911C129.457 31.9229 130.61 31.5388 132.018 31.5388C133.497 31.5388 134.685 31.9656 135.581 32.8192C136.492 33.6727 136.947 34.8037 136.947 36.212H134.493C134.493 35.3869 134.273 34.7539 133.832 34.3129C133.391 33.8577 132.758 33.63 131.933 33.63C131.235 33.63 130.688 33.8008 130.289 34.1422C129.905 34.4694 129.713 34.9175 129.713 35.4865C129.713 35.9986 129.905 36.4396 130.289 36.8095C130.674 37.1794 131.307 37.5421 132.189 37.8978L134.387 38.794C136.264 39.5622 137.203 40.935 137.203 42.9124C137.203 44.1927 136.748 45.2312 135.838 46.0278C134.927 46.8103 133.732 47.2015 132.253 47.2015Z" fill="black"/>
<path d="M143.733 44.8755C144.202 44.8755 144.593 44.8471 144.906 44.7902V46.8387C144.423 46.9241 143.846 46.9667 143.178 46.9667C142.794 46.9667 142.459 46.9383 142.175 46.8814C141.89 46.8245 141.556 46.6964 141.172 46.4973C140.788 46.2839 140.489 45.9211 140.276 45.409C140.062 44.8969 139.956 44.2496 139.956 43.4672V38.8367H138.27V36.8949H139.956V33.8861H142.282V36.8949H144.565V38.8367H142.282V42.9337C142.282 43.7304 142.395 44.2567 142.623 44.5128C142.851 44.7546 143.221 44.8755 143.733 44.8755Z" fill="black"/>
<path d="M155.263 45.6224C154.324 46.604 153.05 47.0948 151.443 47.0948C149.835 47.0948 148.555 46.604 147.602 45.6224C146.663 44.6266 146.194 43.3747 146.194 41.8668C146.194 40.3588 146.663 39.1141 147.602 38.1325C148.555 37.1367 149.835 36.6388 151.443 36.6388C153.05 36.6388 154.324 37.1367 155.263 38.1325C156.216 39.1141 156.692 40.3588 156.692 41.8668C156.692 43.3747 156.216 44.6266 155.263 45.6224ZM149.288 44.15C149.814 44.7333 150.533 45.0249 151.443 45.0249C152.353 45.0249 153.065 44.7333 153.577 44.15C154.103 43.5668 154.366 42.8057 154.366 41.8668C154.366 40.9279 154.103 40.1668 153.577 39.5835C153.065 39.0003 152.353 38.7087 151.443 38.7087C150.533 38.7087 149.814 39.0003 149.288 39.5835C148.776 40.1668 148.52 40.9279 148.52 41.8668C148.52 42.8057 148.776 43.5668 149.288 44.15Z" fill="black"/>
<path d="M158.923 46.8387V36.8949H161.249V38.8153C161.419 38.1467 161.754 37.6417 162.252 37.3003C162.749 36.9447 163.297 36.7668 163.895 36.7668C164.279 36.7668 164.585 36.7953 164.812 36.8522V38.9861C164.57 38.9576 164.264 38.9434 163.895 38.9434C163.07 38.9434 162.422 39.2492 161.953 39.8609C161.483 40.4584 161.249 41.3191 161.249 42.4429V46.8387H158.923Z" fill="black"/>
<path d="M175.43 41.3547C175.43 41.6107 175.408 42.0375 175.365 42.635H167.982C168.011 43.4174 168.267 44.022 168.75 44.4488C169.234 44.8613 169.903 45.0676 170.756 45.0676C171.852 45.0676 172.591 44.6906 172.976 43.9366H175.323C175.166 44.8613 174.661 45.6224 173.808 46.2199C172.968 46.8031 171.951 47.0948 170.756 47.0948C169.191 47.0948 167.954 46.6253 167.043 45.6864C166.133 44.7475 165.678 43.4743 165.678 41.8668C165.678 40.2735 166.126 39.0074 167.022 38.0685C167.932 37.1154 169.149 36.6388 170.671 36.6388C172.094 36.6388 173.239 37.0798 174.107 37.9618C174.989 38.8296 175.43 39.9605 175.43 41.3547ZM167.982 40.8639H173.146C173.132 40.0957 172.904 39.5053 172.463 39.0928C172.037 38.6802 171.425 38.4739 170.628 38.4739C169.817 38.4739 169.177 38.6944 168.708 39.1354C168.238 39.5764 167.997 40.1526 167.982 40.8639Z" fill="black"/>
<path d="M33.8432 26.0231C30.4616 32.1521 32.6113 41.4532 36.3509 47.0928C38.2175 49.9123 40.1073 52.4432 42.6958 52.4432C42.7446 52.4432 42.7935 52.4423 42.8436 52.4402C44.0597 52.3895 44.9385 51.9985 45.7882 51.6205C46.7422 51.1959 47.7288 50.7569 49.2764 50.7569C50.7486 50.7569 51.6882 51.1817 52.5968 51.5923C53.4922 51.9969 54.4146 52.4155 55.7775 52.3888C58.6932 52.3321 60.4833 49.6011 62.0627 47.1918C63.7109 44.6762 64.5376 42.2338 64.8166 41.3005L64.8279 41.2633C64.881 41.0975 64.8059 40.9164 64.6537 40.8434C64.6495 40.8413 64.634 40.8346 64.6297 40.8327C64.1162 40.6134 59.6124 38.5266 59.565 32.8388C59.5211 28.2177 62.9438 25.7706 63.6302 25.3271L63.6622 25.3063C63.7366 25.2563 63.7884 25.177 63.8059 25.0863C63.8235 24.9958 63.8052 24.9015 63.7553 24.8254C61.3928 21.2144 57.7718 20.6702 56.314 20.6047C56.1025 20.5827 55.8841 20.5716 55.6648 20.5716C53.9526 20.5716 52.3123 21.247 50.9945 21.7897C50.0849 22.1643 49.2992 22.4879 48.7573 22.4879C48.1484 22.4879 47.3582 22.1604 46.4432 21.7812C45.2196 21.274 43.8327 20.6992 42.3645 20.6992C42.3295 20.6992 42.295 20.6996 42.261 20.7003C38.8473 20.7528 35.6216 22.7926 33.8432 26.0231Z" fill="black"/>
<path d="M56.3179 10.6664C54.2506 10.7544 51.7707 12.0835 50.2885 13.8968C49.0288 15.4209 47.7983 17.9621 48.1225 20.5235C48.1428 20.6838 48.2676 20.8075 48.422 20.82C48.5615 20.8313 48.704 20.8371 48.8459 20.8372C50.8673 20.8372 53.0478 19.6692 54.537 17.7885C56.1044 15.8026 56.8969 13.2541 56.6572 10.9712C56.6383 10.7923 56.4876 10.6595 56.3179 10.6664Z" fill="black"/>
</svg>
