<svg width="207" height="64" viewBox="0 0 207 64" fill="none" xmlns="http://www.w3.org/2000/svg">
<path d="M0.722168 8.89113C0.722168 3.98069 4.70286 0 9.6133 0H198.053C202.964 0 206.944 3.98069 206.944 8.89113V55.1089C206.944 60.0193 202.964 64 198.053 64H9.6133C4.70286 64 0.722168 60.0193 0.722168 55.1089V8.89113Z" fill="white"/>
<path d="M90.611 19.8752V20.7572H89.5157C89.326 21.9996 88.8328 22.9811 88.0362 23.7019C87.2395 24.4132 86.1821 24.7688 84.8638 24.7688C83.299 24.7688 82.0566 24.2804 81.1367 23.3036C80.2262 22.3173 79.771 21.0844 79.771 19.6049C79.7805 18.1159 80.2357 16.8735 81.1367 15.8777C82.0471 14.8819 83.2895 14.384 84.8638 14.384C85.9734 14.384 86.9171 14.659 87.6948 15.2091C88.4724 15.7497 88.9466 16.4515 89.1173 17.3145H88.0788C87.8892 16.6886 87.5098 16.1907 86.9408 15.8208C86.3718 15.4415 85.6794 15.2518 84.8638 15.2518C83.574 15.2518 82.5687 15.6643 81.8479 16.4894C81.1272 17.305 80.7715 18.3435 80.781 19.6049C80.7715 20.8378 81.1319 21.862 81.8622 22.6776C82.6019 23.4838 83.6025 23.8868 84.8638 23.8868C85.907 23.8868 86.7321 23.6166 87.3391 23.076C87.9461 22.5259 88.3349 21.753 88.5056 20.7572H85.6036V19.8752H90.611Z" fill="black"/>
<path d="M97.6844 20.9136C97.6844 21.1602 97.6749 21.3641 97.6559 21.5254H92.4208C92.4208 22.2461 92.6247 22.8246 93.0325 23.2609C93.4498 23.6877 94.0046 23.9011 94.697 23.9011C95.1806 23.9011 95.5932 23.7967 95.9346 23.5881C96.2855 23.3795 96.5321 23.0902 96.6743 22.7203H97.599C97.4757 23.3178 97.1438 23.8015 96.6032 24.1714C96.0721 24.5412 95.4414 24.7262 94.7112 24.7262C93.7344 24.7262 92.9519 24.4179 92.3639 23.8015C91.7854 23.1756 91.4962 22.341 91.4962 21.2977C91.4962 20.2735 91.7854 19.4531 92.3639 18.8367C92.9424 18.2107 93.7059 17.8978 94.6543 17.8978C95.5553 17.8978 96.2855 18.1823 96.8451 18.7513C97.4046 19.3109 97.6844 20.0316 97.6844 20.9136ZM92.4208 20.7998H96.7882C96.7787 20.1549 96.5843 19.6381 96.2049 19.2492C95.8255 18.8509 95.3039 18.6517 94.6401 18.6517C94.0046 18.6517 93.4878 18.8509 93.0894 19.2492C92.6911 19.6381 92.4682 20.1549 92.4208 20.7998Z" fill="black"/>
<path d="M101.834 23.8015C102.166 23.8015 102.456 23.7683 102.702 23.7019V24.527C102.456 24.6029 102.105 24.6408 101.649 24.6408C101.403 24.6408 101.189 24.6171 101.009 24.5697C100.829 24.5317 100.635 24.4464 100.426 24.3136C100.227 24.1714 100.07 23.9437 99.9565 23.6308C99.8427 23.3083 99.7858 22.91 99.7858 22.4358V18.8651H98.5339V18.0685H99.7858V15.9204H100.696V18.0685H102.489V18.8651H100.696V22.2651C100.696 22.8816 100.791 23.2941 100.981 23.5027C101.18 23.7019 101.464 23.8015 101.834 23.8015Z" fill="black"/>
<path d="M108.97 16.5321C108.809 16.6933 108.605 16.7739 108.358 16.7739C108.111 16.7739 107.908 16.6933 107.746 16.5321C107.585 16.3709 107.505 16.167 107.505 15.9204C107.505 15.6833 107.585 15.4841 107.746 15.3229C107.908 15.1522 108.111 15.0668 108.358 15.0668C108.605 15.0668 108.809 15.1522 108.97 15.3229C109.131 15.4841 109.212 15.6833 109.212 15.9204C109.212 16.167 109.131 16.3709 108.97 16.5321ZM107.889 24.5555V18.0685H108.813V24.5555H107.889Z" fill="black"/>
<path d="M113.573 23.8015C113.905 23.8015 114.195 23.7683 114.441 23.7019V24.527C114.195 24.6029 113.844 24.6408 113.388 24.6408C113.142 24.6408 112.928 24.6171 112.748 24.5697C112.568 24.5317 112.374 24.4464 112.165 24.3136C111.966 24.1714 111.809 23.9437 111.696 23.6308C111.582 23.3083 111.525 22.91 111.525 22.4358V18.8651H110.273V18.0685H111.525V15.9204H112.435V18.0685H114.228V18.8651H112.435V22.2651C112.435 22.8816 112.53 23.2941 112.72 23.5027C112.919 23.7019 113.204 23.8015 113.573 23.8015Z" fill="black"/>
<path d="M124.82 23.7446C124.213 24.399 123.407 24.7262 122.402 24.7262C121.396 24.7262 120.586 24.399 119.969 23.7446C119.362 23.0902 119.059 22.2793 119.059 21.312C119.059 20.3446 119.362 19.5337 119.969 18.8794C120.586 18.225 121.396 17.8978 122.402 17.8978C123.407 17.8978 124.213 18.225 124.82 18.8794C125.427 19.5243 125.731 20.3351 125.731 21.312C125.731 22.2793 125.427 23.0902 124.82 23.7446ZM120.638 23.1471C121.083 23.6403 121.671 23.8868 122.402 23.8868C123.132 23.8868 123.715 23.6403 124.151 23.1471C124.597 22.6539 124.82 22.0422 124.82 21.312C124.82 20.5722 124.602 19.9605 124.166 19.4768C123.729 18.9837 123.141 18.7371 122.402 18.7371C121.662 18.7371 121.074 18.9837 120.638 19.4768C120.201 19.9605 119.983 20.5722 119.983 21.312C119.983 22.0422 120.201 22.6539 120.638 23.1471Z" fill="black"/>
<path d="M127.435 24.5555V18.0685H128.36V19.5622C128.512 19.0596 128.796 18.6565 129.213 18.353C129.631 18.0495 130.152 17.8978 130.778 17.8978C131.594 17.8978 132.206 18.1349 132.613 18.6091C133.031 19.0738 133.239 19.7519 133.239 20.6434V24.5555H132.329V21.0132C132.329 19.4768 131.712 18.7086 130.48 18.7086C129.787 18.7086 129.261 18.941 128.9 19.4057C128.54 19.8609 128.36 20.4774 128.36 21.2551V24.5555H127.435Z" fill="black"/>
<path d="M86.3079 31.9016C87.8016 31.9016 89.0251 32.3924 89.9782 33.374C90.9455 34.3556 91.4292 35.6074 91.4292 37.1296C91.4292 38.6518 90.9455 39.9036 89.9782 40.8852C89.0251 41.8668 87.8016 42.3576 86.3079 42.3576H83.2565V46.8387H80.8025V31.9016H86.3079ZM86.1586 40.1597C86.9694 40.1597 87.638 39.8752 88.1644 39.3062C88.705 38.7229 88.9753 37.9974 88.9753 37.1296C88.9753 36.2618 88.705 35.5434 88.1644 34.9744C87.638 34.3911 86.9694 34.0995 86.1586 34.0995H83.2565V40.1597H86.1586Z" fill="black"/>
<path d="M93.1365 46.8387V31.9016H95.4624V46.8387H93.1365Z" fill="black"/>
<path d="M102.59 47.0948C101.039 47.0948 99.8373 46.604 98.9838 45.6224C98.1302 44.6408 97.7035 43.389 97.7035 41.8668C97.7035 40.3589 98.1516 39.1141 99.0478 38.1325C99.944 37.1367 101.146 36.6388 102.654 36.6388C103.323 36.6388 103.934 36.7811 104.489 37.0656C105.044 37.3501 105.471 37.7413 105.769 38.2392V36.8949H108.095V46.8387H105.769V45.4944C105.485 45.9781 105.037 46.3693 104.425 46.668C103.828 46.9525 103.216 47.0948 102.59 47.0948ZM102.931 45.0249C103.885 45.0249 104.61 44.7262 105.108 44.1287C105.62 43.5312 105.876 42.7773 105.876 41.8668C105.876 40.9564 105.62 40.2024 105.108 39.6049C104.61 39.0074 103.885 38.7087 102.931 38.7087C102.035 38.7087 101.324 39.0074 100.798 39.6049C100.285 40.1882 100.029 40.9421 100.029 41.8668C100.029 42.7915 100.285 43.5526 100.798 44.15C101.324 44.7333 102.035 45.0249 102.931 45.0249Z" fill="black"/>
<path d="M117.843 36.8949H120.169V46.8814C120.169 48.4036 119.735 49.5843 118.867 50.4236C118.028 51.1918 116.904 51.5759 115.496 51.5759C114.03 51.5759 112.892 51.2345 112.081 50.5517C111.37 49.9257 111 49.0651 110.972 47.9697H113.319C113.376 48.5387 113.561 48.9584 113.874 49.2287C114.201 49.5132 114.727 49.6554 115.453 49.6554C116.193 49.6554 116.776 49.4136 117.203 48.9299C117.629 48.4605 117.843 47.7207 117.843 46.7107V45.4517C117.203 46.5471 116.136 47.0948 114.642 47.0948C113.461 47.0948 112.551 46.7178 111.911 45.9638C111.285 45.1956 110.972 44.1927 110.972 42.9551V36.8949H113.298V42.4643C113.298 44.1856 114.016 45.0463 115.453 45.0463C116.235 45.0463 116.826 44.7689 117.224 44.2141C117.637 43.6593 117.843 42.9337 117.843 42.0375V36.8949Z" fill="black"/>
<path d="M133.087 47.2015C131.352 47.2015 130.007 46.7463 129.054 45.8358C128.115 44.9254 127.646 43.6308 127.646 41.9522H130.1C130.1 42.9195 130.363 43.6806 130.889 44.2354C131.416 44.7902 132.141 45.0676 133.066 45.0676C133.877 45.0676 134.496 44.8898 134.923 44.5341C135.363 44.1643 135.584 43.645 135.584 42.9764C135.584 42.4074 135.42 41.9522 135.093 41.6107C134.78 41.2693 134.204 40.9279 133.365 40.5865L130.932 39.6049C129.026 38.8652 128.073 37.5422 128.073 35.6359C128.073 34.4267 128.514 33.4451 129.396 32.6912C130.292 31.923 131.444 31.5389 132.853 31.5389C134.332 31.5389 135.52 31.9656 136.416 32.8192C137.327 33.6727 137.782 34.8037 137.782 36.212H135.328C135.328 35.3869 135.107 34.7539 134.666 34.3129C134.225 33.8577 133.592 33.6301 132.767 33.6301C132.07 33.6301 131.523 33.8008 131.124 34.1422C130.74 34.4694 130.548 34.9175 130.548 35.4865C130.548 35.9987 130.74 36.4397 131.124 36.8095C131.508 37.1794 132.141 37.5422 133.023 37.8978L135.221 38.794C137.099 39.5622 138.038 40.935 138.038 42.9124C138.038 44.1927 137.583 45.2312 136.672 46.0279C135.762 46.8103 134.567 47.2015 133.087 47.2015Z" fill="black"/>
<path d="M144.567 44.8756C145.037 44.8756 145.428 44.8471 145.741 44.7902V46.8387C145.257 46.9241 144.681 46.9668 144.013 46.9668C143.629 46.9668 143.294 46.9383 143.01 46.8814C142.725 46.8245 142.391 46.6965 142.007 46.4973C141.623 46.2839 141.324 45.9212 141.111 45.409C140.897 44.8969 140.79 44.2496 140.79 43.4672V38.8367H139.105V36.8949H140.79V33.8861H143.116V36.8949H145.4V38.8367H143.116V42.9337C143.116 43.7304 143.23 44.2567 143.458 44.5128C143.685 44.7546 144.055 44.8756 144.567 44.8756Z" fill="black"/>
<path d="M156.097 45.6224C155.158 46.604 153.885 47.0948 152.278 47.0948C150.67 47.0948 149.39 46.604 148.437 45.6224C147.498 44.6266 147.028 43.3747 147.028 41.8668C147.028 40.3589 147.498 39.1141 148.437 38.1325C149.39 37.1367 150.67 36.6388 152.278 36.6388C153.885 36.6388 155.158 37.1367 156.097 38.1325C157.05 39.1141 157.527 40.3589 157.527 41.8668C157.527 43.3747 157.05 44.6266 156.097 45.6224ZM150.122 44.15C150.649 44.7333 151.367 45.0249 152.278 45.0249C153.188 45.0249 153.899 44.7333 154.412 44.15C154.938 43.5668 155.201 42.8057 155.201 41.8668C155.201 40.9279 154.938 40.1668 154.412 39.5836C153.899 39.0003 153.188 38.7087 152.278 38.7087C151.367 38.7087 150.649 39.0003 150.122 39.5836C149.61 40.1668 149.354 40.9279 149.354 41.8668C149.354 42.8057 149.61 43.5668 150.122 44.15Z" fill="black"/>
<path d="M159.757 46.8387V36.8949H162.083V38.8154C162.254 38.1468 162.588 37.6417 163.086 37.3003C163.584 36.9447 164.132 36.7668 164.729 36.7668C165.113 36.7668 165.419 36.7953 165.647 36.8522V38.9861C165.405 38.9576 165.099 38.9434 164.729 38.9434C163.904 38.9434 163.257 39.2493 162.788 39.861C162.318 40.4585 162.083 41.3191 162.083 42.4429V46.8387H159.757Z" fill="black"/>
<path d="M176.264 41.3547C176.264 41.6107 176.243 42.0375 176.2 42.635H168.817C168.846 43.4174 169.102 44.022 169.585 44.4488C170.069 44.8613 170.738 45.0676 171.591 45.0676C172.686 45.0676 173.426 44.6906 173.81 43.9367H176.158C176.001 44.8613 175.496 45.6224 174.643 46.2199C173.803 46.8032 172.786 47.0948 171.591 47.0948C170.026 47.0948 168.789 46.6253 167.878 45.6864C166.968 44.7475 166.512 43.4743 166.512 41.8668C166.512 40.2735 166.961 39.0074 167.857 38.0685C168.767 37.1154 169.984 36.6388 171.506 36.6388C172.928 36.6388 174.073 37.0798 174.941 37.9618C175.823 38.8296 176.264 39.9605 176.264 41.3547ZM168.817 40.8639H173.981C173.967 40.0957 173.739 39.5053 173.298 39.0928C172.871 38.6802 172.26 38.4739 171.463 38.4739C170.652 38.4739 170.012 38.6945 169.543 39.1354C169.073 39.5765 168.831 40.1526 168.817 40.8639Z" fill="black"/>
<path d="M47.8431 32.1755L30.5833 13.4503C30.4725 13.3283 30.3272 13.2428 30.1667 13.2052C30.0062 13.1676 29.838 13.1796 29.6845 13.2396C29.531 13.2996 29.3993 13.4048 29.3068 13.5412C29.2143 13.6777 29.1655 13.839 29.1667 14.0039V51.4544C29.1655 51.6192 29.2143 51.7806 29.3068 51.917C29.3993 52.0535 29.531 52.1587 29.6845 52.2187C29.838 52.2787 30.0062 52.2907 30.1667 52.2531C30.3272 52.2154 30.4725 52.13 30.5833 52.008L47.8431 33.2828C47.9827 33.1322 48.0603 32.9345 48.0603 32.7291C48.0603 32.5238 47.9827 32.3261 47.8431 32.1755Z" fill="black"/>
<path d="M50.1224 34.6502C50.0436 34.5704 49.9498 34.5071 49.8464 34.4639C49.743 34.4207 49.632 34.3984 49.5199 34.3984C49.4078 34.3984 49.2968 34.4207 49.1934 34.4639C49.09 34.5071 48.9962 34.5704 48.9174 34.6502L35.4353 49.3047C35.3038 49.4483 35.228 49.6342 35.2218 49.8287C35.2156 50.0233 35.2794 50.2137 35.4014 50.3653C35.5235 50.5169 35.6959 50.6198 35.8873 50.6552C36.0787 50.6907 36.2765 50.6564 36.4448 50.5585C41.6553 47.5462 48.1359 43.736 53.9488 40.2841C54.0531 40.2219 54.1422 40.1371 54.2095 40.0361C54.2768 39.935 54.3206 39.8201 54.3378 39.6999C54.355 39.5797 54.345 39.4572 54.3087 39.3413C54.2724 39.2255 54.2106 39.1192 54.1279 39.0303L50.1224 34.6502Z" fill="black"/>
<path d="M64.1753 31.2963L56.848 26.9488C56.6882 26.8545 56.501 26.8177 56.3175 26.8443C56.1339 26.871 55.9649 26.9595 55.8385 27.0953L51.149 32.1756C51.0094 32.3261 50.9318 32.5238 50.9318 32.7292C50.9318 32.9345 51.0094 33.1322 51.149 33.2828L55.8385 38.363C55.9649 38.4988 56.1339 38.5874 56.3175 38.614C56.501 38.6407 56.6882 38.6038 56.848 38.5096L64.1102 34.1621C64.3727 34.0239 64.5925 33.8167 64.7459 33.5627C64.8993 33.3088 64.9803 33.0177 64.9803 32.721C64.9803 32.4244 64.8993 32.1333 64.7459 31.8793C64.5925 31.6254 64.3727 31.4181 64.1102 31.28L64.1753 31.2963Z" fill="black"/>
<path d="M48.934 30.8086C49.0103 30.8925 49.1034 30.9596 49.2071 31.0055C49.3109 31.0514 49.423 31.0751 49.5365 31.0751C49.6499 31.0751 49.7621 31.0514 49.8659 31.0055C49.9696 30.9596 50.0627 30.8925 50.139 30.8086L54.1608 26.4448C54.2435 26.3559 54.3053 26.2496 54.3416 26.1337C54.3779 26.0178 54.3879 25.8953 54.3707 25.7751C54.3535 25.6549 54.3097 25.54 54.2424 25.439C54.1751 25.3379 54.086 25.2532 53.9817 25.191C48.1362 21.739 41.6556 17.9451 36.4614 14.9165C36.2931 14.8187 36.0953 14.7844 35.9039 14.8198C35.7125 14.8553 35.5401 14.9581 35.418 15.1097C35.296 15.2614 35.2322 15.4517 35.2384 15.6463C35.2446 15.8409 35.3204 16.0268 35.4519 16.1703L48.934 30.8086Z" fill="black"/>
</svg>
